<?xml version="1.0" encoding="utf-8" ?>
<svg baseProfile="full" height="291" version="1.1" width="339" xmlns="http://www.w3.org/2000/svg" xmlns:ev="http://www.w3.org/2001/xml-events" xmlns:xlink="http://www.w3.org/1999/xlink"><defs /><path d="M 148.0 131.0 L 147.0 132.0 L 145.0 132.0 L 144.0 133.0 L 143.0 133.0 L 140.0 136.0 L 140.0 137.0 L 139.0 138.0 L 139.0 139.0 L 138.0 140.0 L 138.0 147.0 L 139.0 148.0 L 139.0 150.0 L 144.0 155.0 L 145.0 155.0 L 146.0 156.0 L 154.0 156.0 L 155.0 155.0 L 156.0 155.0 L 157.0 154.0 L 158.0 154.0 L 160.0 152.0 L 160.0 151.0 L 162.0 149.0 L 162.0 146.0 L 163.0 145.0 L 163.0 142.0 L 162.0 141.0 L 162.0 139.0 L 161.0 138.0 L 161.0 137.0 L 157.0 133.0 L 156.0 133.0 L 155.0 132.0 L 154.0 132.0 L 153.0 131.0 Z M 253.0 119.0 L 252.0 120.0 L 252.0 121.0 L 251.0 122.0 L 251.0 208.0 L 250.0 209.0 L 218.0 209.0 L 217.0 210.0 L 217.0 214.0 L 222.0 219.0 L 222.0 220.0 L 227.0 225.0 L 227.0 226.0 L 231.0 230.0 L 231.0 231.0 L 235.0 235.0 L 235.0 236.0 L 239.0 240.0 L 239.0 241.0 L 242.0 244.0 L 242.0 245.0 L 246.0 249.0 L 246.0 250.0 L 250.0 254.0 L 250.0 255.0 L 255.0 260.0 L 255.0 261.0 L 259.0 265.0 L 259.0 266.0 L 263.0 270.0 L 263.0 271.0 L 267.0 275.0 L 267.0 276.0 L 271.0 280.0 L 271.0 281.0 L 276.0 286.0 L 278.0 286.0 L 281.0 283.0 L 281.0 282.0 L 286.0 277.0 L 286.0 276.0 L 290.0 272.0 L 290.0 271.0 L 295.0 266.0 L 295.0 265.0 L 299.0 261.0 L 299.0 260.0 L 303.0 256.0 L 303.0 255.0 L 308.0 250.0 L 308.0 249.0 L 313.0 244.0 L 313.0 243.0 L 317.0 239.0 L 317.0 238.0 L 322.0 233.0 L 322.0 232.0 L 327.0 227.0 L 327.0 226.0 L 332.0 221.0 L 332.0 220.0 L 337.0 215.0 L 337.0 214.0 L 338.0 213.0 L 338.0 210.0 L 337.0 209.0 L 305.0 209.0 L 304.0 208.0 L 304.0 122.0 L 303.0 121.0 L 303.0 120.0 L 302.0 119.0 Z M 137.0 35.0 L 136.0 36.0 L 131.0 36.0 L 130.0 37.0 L 126.0 37.0 L 125.0 38.0 L 122.0 38.0 L 121.0 39.0 L 119.0 39.0 L 118.0 40.0 L 116.0 40.0 L 115.0 41.0 L 113.0 41.0 L 112.0 42.0 L 110.0 42.0 L 109.0 43.0 L 108.0 43.0 L 107.0 44.0 L 106.0 44.0 L 105.0 45.0 L 104.0 45.0 L 103.0 46.0 L 102.0 46.0 L 101.0 47.0 L 100.0 47.0 L 99.0 48.0 L 98.0 48.0 L 97.0 49.0 L 96.0 49.0 L 95.0 50.0 L 94.0 50.0 L 92.0 52.0 L 91.0 52.0 L 89.0 54.0 L 88.0 54.0 L 85.0 57.0 L 84.0 57.0 L 80.0 61.0 L 79.0 61.0 L 69.0 71.0 L 69.0 72.0 L 65.0 76.0 L 65.0 77.0 L 62.0 80.0 L 62.0 81.0 L 60.0 83.0 L 60.0 84.0 L 58.0 86.0 L 58.0 87.0 L 56.0 89.0 L 56.0 90.0 L 55.0 91.0 L 55.0 92.0 L 54.0 93.0 L 54.0 94.0 L 53.0 95.0 L 53.0 96.0 L 52.0 97.0 L 52.0 98.0 L 51.0 99.0 L 51.0 101.0 L 50.0 102.0 L 50.0 103.0 L 49.0 104.0 L 49.0 106.0 L 48.0 107.0 L 48.0 109.0 L 47.0 110.0 L 47.0 112.0 L 46.0 113.0 L 46.0 116.0 L 45.0 117.0 L 45.0 120.0 L 44.0 121.0 L 44.0 125.0 L 43.0 126.0 L 43.0 132.0 L 42.0 133.0 L 42.0 157.0 L 43.0 158.0 L 43.0 163.0 L 44.0 164.0 L 44.0 168.0 L 45.0 169.0 L 45.0 173.0 L 46.0 174.0 L 46.0 176.0 L 47.0 177.0 L 47.0 179.0 L 48.0 180.0 L 48.0 182.0 L 49.0 183.0 L 49.0 185.0 L 50.0 186.0 L 50.0 187.0 L 51.0 188.0 L 51.0 190.0 L 52.0 191.0 L 52.0 192.0 L 53.0 193.0 L 53.0 194.0 L 54.0 195.0 L 54.0 196.0 L 56.0 198.0 L 56.0 199.0 L 57.0 200.0 L 57.0 201.0 L 58.0 202.0 L 58.0 203.0 L 60.0 205.0 L 60.0 206.0 L 62.0 208.0 L 62.0 209.0 L 65.0 212.0 L 65.0 213.0 L 71.0 219.0 L 71.0 220.0 L 76.0 225.0 L 77.0 225.0 L 83.0 231.0 L 84.0 231.0 L 87.0 234.0 L 88.0 234.0 L 90.0 236.0 L 91.0 236.0 L 93.0 238.0 L 94.0 238.0 L 95.0 239.0 L 96.0 239.0 L 98.0 241.0 L 99.0 241.0 L 100.0 242.0 L 101.0 242.0 L 102.0 243.0 L 103.0 243.0 L 104.0 244.0 L 105.0 244.0 L 106.0 245.0 L 107.0 245.0 L 108.0 246.0 L 110.0 246.0 L 111.0 247.0 L 112.0 247.0 L 113.0 248.0 L 115.0 248.0 L 116.0 249.0 L 118.0 249.0 L 119.0 250.0 L 121.0 250.0 L 122.0 251.0 L 125.0 251.0 L 126.0 252.0 L 130.0 252.0 L 131.0 253.0 L 136.0 253.0 L 137.0 254.0 L 164.0 254.0 L 165.0 253.0 L 170.0 253.0 L 171.0 252.0 L 175.0 252.0 L 176.0 251.0 L 178.0 251.0 L 179.0 250.0 L 182.0 250.0 L 183.0 249.0 L 185.0 249.0 L 186.0 248.0 L 188.0 248.0 L 189.0 247.0 L 190.0 247.0 L 191.0 246.0 L 192.0 246.0 L 193.0 245.0 L 195.0 245.0 L 196.0 244.0 L 197.0 244.0 L 198.0 243.0 L 199.0 243.0 L 201.0 241.0 L 202.0 241.0 L 203.0 240.0 L 204.0 240.0 L 205.0 239.0 L 206.0 239.0 L 208.0 237.0 L 209.0 237.0 L 211.0 235.0 L 212.0 235.0 L 214.0 233.0 L 215.0 233.0 L 216.0 232.0 L 216.0 231.0 L 215.0 230.0 L 215.0 229.0 L 210.0 224.0 L 210.0 223.0 L 205.0 218.0 L 205.0 217.0 L 204.0 216.0 L 204.0 214.0 L 203.0 213.0 L 203.0 207.0 L 204.0 206.0 L 204.0 204.0 L 210.0 198.0 L 211.0 198.0 L 212.0 197.0 L 214.0 197.0 L 215.0 196.0 L 217.0 196.0 L 218.0 197.0 L 237.0 197.0 L 238.0 196.0 L 238.0 116.0 L 239.0 115.0 L 239.0 113.0 L 244.0 108.0 L 245.0 108.0 L 246.0 107.0 L 247.0 107.0 L 248.0 106.0 L 251.0 106.0 L 251.0 105.0 L 250.0 104.0 L 250.0 102.0 L 249.0 101.0 L 249.0 100.0 L 248.0 99.0 L 248.0 97.0 L 247.0 96.0 L 247.0 95.0 L 246.0 94.0 L 246.0 93.0 L 245.0 92.0 L 245.0 91.0 L 244.0 90.0 L 244.0 89.0 L 242.0 87.0 L 242.0 86.0 L 241.0 85.0 L 241.0 84.0 L 239.0 82.0 L 239.0 81.0 L 236.0 78.0 L 236.0 77.0 L 233.0 74.0 L 233.0 73.0 L 219.0 59.0 L 218.0 59.0 L 215.0 56.0 L 214.0 56.0 L 211.0 53.0 L 210.0 53.0 L 208.0 51.0 L 207.0 51.0 L 206.0 50.0 L 205.0 50.0 L 203.0 48.0 L 202.0 48.0 L 201.0 47.0 L 200.0 47.0 L 199.0 46.0 L 198.0 46.0 L 197.0 45.0 L 196.0 45.0 L 195.0 44.0 L 194.0 44.0 L 193.0 43.0 L 191.0 43.0 L 190.0 42.0 L 189.0 42.0 L 188.0 41.0 L 186.0 41.0 L 185.0 40.0 L 183.0 40.0 L 182.0 39.0 L 179.0 39.0 L 178.0 38.0 L 175.0 38.0 L 174.0 37.0 L 171.0 37.0 L 170.0 36.0 L 164.0 36.0 L 163.0 35.0 Z M 202.0 172.0 L 205.0 172.0 L 207.0 174.0 L 207.0 177.0 L 206.0 178.0 L 206.0 179.0 L 204.0 181.0 L 204.0 182.0 L 201.0 185.0 L 201.0 186.0 L 191.0 196.0 L 190.0 196.0 L 187.0 199.0 L 186.0 199.0 L 184.0 201.0 L 183.0 201.0 L 181.0 203.0 L 180.0 203.0 L 179.0 204.0 L 178.0 204.0 L 177.0 205.0 L 176.0 205.0 L 175.0 206.0 L 174.0 206.0 L 173.0 207.0 L 171.0 207.0 L 170.0 208.0 L 168.0 208.0 L 167.0 209.0 L 162.0 209.0 L 160.0 207.0 L 160.0 205.0 L 163.0 202.0 L 164.0 202.0 L 165.0 201.0 L 167.0 201.0 L 168.0 200.0 L 170.0 200.0 L 171.0 199.0 L 172.0 199.0 L 173.0 198.0 L 174.0 198.0 L 175.0 197.0 L 176.0 197.0 L 177.0 196.0 L 178.0 196.0 L 179.0 195.0 L 180.0 195.0 L 183.0 192.0 L 184.0 192.0 L 196.0 180.0 L 196.0 179.0 L 199.0 176.0 L 199.0 175.0 Z M 142.0 105.0 L 143.0 104.0 L 157.0 104.0 L 158.0 105.0 L 162.0 105.0 L 163.0 106.0 L 165.0 106.0 L 166.0 107.0 L 167.0 107.0 L 168.0 108.0 L 169.0 108.0 L 170.0 109.0 L 171.0 109.0 L 173.0 111.0 L 174.0 111.0 L 182.0 119.0 L 182.0 120.0 L 185.0 123.0 L 185.0 124.0 L 186.0 125.0 L 186.0 126.0 L 187.0 127.0 L 187.0 128.0 L 188.0 129.0 L 188.0 131.0 L 189.0 132.0 L 189.0 135.0 L 190.0 136.0 L 190.0 152.0 L 189.0 153.0 L 189.0 156.0 L 188.0 157.0 L 188.0 159.0 L 187.0 160.0 L 187.0 161.0 L 186.0 162.0 L 186.0 163.0 L 185.0 164.0 L 185.0 165.0 L 183.0 167.0 L 183.0 168.0 L 174.0 177.0 L 173.0 177.0 L 171.0 179.0 L 170.0 179.0 L 169.0 180.0 L 168.0 180.0 L 167.0 181.0 L 166.0 181.0 L 165.0 182.0 L 164.0 182.0 L 163.0 183.0 L 160.0 183.0 L 159.0 184.0 L 155.0 184.0 L 154.0 185.0 L 147.0 185.0 L 146.0 184.0 L 141.0 184.0 L 140.0 183.0 L 138.0 183.0 L 137.0 182.0 L 135.0 182.0 L 134.0 181.0 L 133.0 181.0 L 132.0 180.0 L 131.0 180.0 L 130.0 179.0 L 129.0 179.0 L 126.0 176.0 L 125.0 176.0 L 119.0 170.0 L 119.0 169.0 L 116.0 166.0 L 116.0 165.0 L 115.0 164.0 L 115.0 163.0 L 114.0 162.0 L 114.0 161.0 L 113.0 160.0 L 113.0 159.0 L 112.0 158.0 L 112.0 155.0 L 111.0 154.0 L 111.0 151.0 L 110.0 150.0 L 110.0 138.0 L 111.0 137.0 L 111.0 134.0 L 112.0 133.0 L 112.0 131.0 L 113.0 130.0 L 113.0 128.0 L 114.0 127.0 L 114.0 126.0 L 115.0 125.0 L 115.0 124.0 L 117.0 122.0 L 117.0 121.0 L 127.0 111.0 L 128.0 111.0 L 130.0 109.0 L 131.0 109.0 L 132.0 108.0 L 133.0 108.0 L 134.0 107.0 L 135.0 107.0 L 136.0 106.0 L 138.0 106.0 L 139.0 105.0 Z M 121.0 84.0 L 122.0 83.0 L 125.0 83.0 L 128.0 86.0 L 128.0 87.0 L 127.0 88.0 L 127.0 89.0 L 126.0 90.0 L 125.0 90.0 L 124.0 91.0 L 123.0 91.0 L 122.0 92.0 L 121.0 92.0 L 120.0 93.0 L 119.0 93.0 L 117.0 95.0 L 116.0 95.0 L 114.0 97.0 L 113.0 97.0 L 103.0 107.0 L 103.0 108.0 L 101.0 110.0 L 101.0 111.0 L 99.0 113.0 L 99.0 114.0 L 98.0 115.0 L 98.0 116.0 L 97.0 117.0 L 97.0 118.0 L 96.0 119.0 L 96.0 120.0 L 95.0 121.0 L 95.0 123.0 L 94.0 124.0 L 94.0 126.0 L 93.0 127.0 L 93.0 129.0 L 92.0 130.0 L 92.0 133.0 L 91.0 134.0 L 91.0 140.0 L 90.0 141.0 L 90.0 142.0 L 88.0 144.0 L 85.0 144.0 L 83.0 142.0 L 83.0 134.0 L 84.0 133.0 L 84.0 130.0 L 85.0 129.0 L 85.0 126.0 L 86.0 125.0 L 86.0 123.0 L 87.0 122.0 L 87.0 120.0 L 88.0 119.0 L 88.0 118.0 L 89.0 117.0 L 89.0 116.0 L 90.0 115.0 L 90.0 114.0 L 91.0 113.0 L 91.0 112.0 L 92.0 111.0 L 92.0 110.0 L 94.0 108.0 L 94.0 107.0 L 96.0 105.0 L 96.0 104.0 L 102.0 98.0 L 102.0 97.0 L 104.0 95.0 L 105.0 95.0 L 110.0 90.0 L 111.0 90.0 L 113.0 88.0 L 114.0 88.0 L 116.0 86.0 L 117.0 86.0 L 118.0 85.0 L 119.0 85.0 L 120.0 84.0 Z M 115.0 63.0 L 116.0 62.0 L 118.0 62.0 L 121.0 65.0 L 121.0 68.0 L 120.0 69.0 L 119.0 69.0 L 118.0 70.0 L 117.0 70.0 L 116.0 71.0 L 115.0 71.0 L 114.0 72.0 L 113.0 72.0 L 111.0 74.0 L 110.0 74.0 L 109.0 75.0 L 108.0 75.0 L 106.0 77.0 L 105.0 77.0 L 103.0 79.0 L 102.0 79.0 L 99.0 82.0 L 98.0 82.0 L 88.0 92.0 L 88.0 93.0 L 85.0 96.0 L 85.0 97.0 L 83.0 99.0 L 83.0 100.0 L 81.0 102.0 L 81.0 103.0 L 80.0 104.0 L 80.0 105.0 L 79.0 106.0 L 79.0 107.0 L 78.0 108.0 L 78.0 109.0 L 77.0 110.0 L 77.0 111.0 L 76.0 112.0 L 76.0 113.0 L 75.0 114.0 L 75.0 116.0 L 74.0 117.0 L 74.0 119.0 L 73.0 120.0 L 73.0 122.0 L 72.0 123.0 L 72.0 126.0 L 71.0 127.0 L 71.0 132.0 L 70.0 133.0 L 70.0 141.0 L 69.0 142.0 L 69.0 148.0 L 68.0 149.0 L 67.0 149.0 L 66.0 150.0 L 65.0 150.0 L 64.0 149.0 L 63.0 149.0 L 62.0 148.0 L 62.0 132.0 L 63.0 131.0 L 63.0 127.0 L 64.0 126.0 L 64.0 123.0 L 65.0 122.0 L 65.0 119.0 L 66.0 118.0 L 66.0 116.0 L 67.0 115.0 L 67.0 113.0 L 68.0 112.0 L 68.0 111.0 L 69.0 110.0 L 69.0 108.0 L 70.0 107.0 L 70.0 106.0 L 71.0 105.0 L 71.0 104.0 L 73.0 102.0 L 73.0 101.0 L 74.0 100.0 L 74.0 99.0 L 76.0 97.0 L 76.0 96.0 L 78.0 94.0 L 78.0 93.0 L 81.0 90.0 L 81.0 89.0 L 95.0 75.0 L 96.0 75.0 L 99.0 72.0 L 100.0 72.0 L 103.0 69.0 L 104.0 69.0 L 105.0 68.0 L 106.0 68.0 L 108.0 66.0 L 109.0 66.0 L 110.0 65.0 L 111.0 65.0 L 112.0 64.0 L 113.0 64.0 L 114.0 63.0 Z M 5.0 0.0 L 1.0 4.0 L 1.0 5.0 L 0.0 6.0 L 0.0 284.0 L 1.0 285.0 L 1.0 286.0 L 5.0 290.0 L 261.0 290.0 L 262.0 289.0 L 259.0 286.0 L 259.0 285.0 L 255.0 281.0 L 255.0 280.0 L 250.0 275.0 L 16.0 275.0 L 15.0 274.0 L 15.0 16.0 L 16.0 15.0 L 280.0 15.0 L 281.0 16.0 L 281.0 106.0 L 282.0 107.0 L 283.0 106.0 L 293.0 106.0 L 294.0 107.0 L 295.0 106.0 L 295.0 4.0 L 291.0 0.0 Z" fill="#fa586a" fill-rule="evenodd" stroke="none" /></svg>